PathFileType	4	(X/Y/Z)	C:\Users\WrightLab\Desktop\Jo\P5V25.trc
DataRate	CameraRate	NumFrames	NumMarkers	Units	OrigDataRate	OrigDataStartFrame	OrigNumFrames
100.00	100.00	       34	19	mm	100.00	99	       790
Frame#	Time	Headset_Front			Headset_Back			Headset_Left			Headset_Right			Left_Shoulder			Right_Shoulder			Sternum			C7			Left Elbow			Right Elbow			Left Wrist			Right Wrist			Left ASIS			Right ASIS			S2			Left Knee			Right Knee			Left Ankle			Right Ankle			
		X1	Y1	Z1	X2	Y2	Z2	X3	Y3	Z3	X4	Y4	Z4	X5	Y5	Z5	X6	Y6	Z6	X7	Y7	Z7	X8	Y8	Z8	X9	Y9	Z9	X10	Y10	Z10	X11	Y11	Z11	X12	Y12	Z12	X13	Y13	Z13	X14	Y14	Z14	X15	Y15	Z15	X16	Y16	Z16	X17	Y17	Z17	X18	Y18	Z18	X19	Y19	Z19	

99	0.980																												-629.05414	1172.14087	-1358.97131				-555.57428	1066.07410	-1157.18384	-185.12044	915.04108	-1309.80151	-461.28659	934.11725	-1274.36060				-159.79042	472.93661	-1370.70764	-525.96954	468.71988	-1317.24719				-505.26981	66.95373	-1394.01038	
100	0.990																												-629.52612	1172.20093	-1358.10193				-555.78864	1066.51440	-1156.24963	-185.13699	915.03772	-1309.81384	-461.19208	934.23438	-1274.06311				-159.72995	473.05737	-1370.38220	-524.82593	467.82776	-1318.04224				-505.67032	66.87472	-1391.98865	
101	1.000																												-629.94659	1172.52869	-1357.69812				-556.02960	1066.63110	-1155.66870	-185.12556	915.02960	-1309.80542	-461.16376	934.25476	-1273.72034				-159.66080	473.21133	-1370.01233	-526.44757	469.39310	-1317.27441				-505.66238	66.90394	-1391.95935	
102	1.010																												-630.11255	1172.72571	-1357.35120				-556.03271	1066.61426	-1155.66687	-185.12154	915.03363	-1309.80237	-461.23996	934.13562	-1273.53113				-159.59811	473.32556	-1369.67334	-525.52307	468.30331	-1317.45129				-505.66696	66.87698	-1391.97375	
103	1.020																												-630.27393	1172.91418	-1356.89026				-556.22449	1066.91333	-1154.92200	-185.14821	915.02997	-1309.82227	-461.05777	934.34741	-1272.71667				-159.49785	473.58603	-1369.14258	-524.65088	467.95593	-1317.76782				-505.73013	66.73427	-1392.23071	
104	1.030																												-630.44922	1173.11328	-1356.48242				-556.21637	1067.28296	-1154.17188	-185.05724	915.58948	-1308.91663	-461.05777	934.34741	-1272.71667				-159.43285	473.70728	-1368.79138	-525.42584	468.33896	-1317.08337				-505.74017	66.71476	-1392.27234	
105	1.040																												-631.70667	1170.60266	-1365.21436				-556.83643	1066.85925	-1153.51770	-185.11134	915.60718	-1308.95691	-460.66684	933.79248	-1272.14001				-159.01059	472.80933	-1370.01440	-524.86584	467.78152	-1317.24597				-505.75836	66.66794	-1392.34485	
106	1.050																												-632.50665	1171.76001	-1360.87317				-556.98993	1067.10986	-1152.45227	-185.15714	915.59058	-1308.99121	-460.91708	934.50262	-1271.94214				-158.93419	473.05862	-1369.61694	-524.66962	467.90964	-1316.94800				-505.78867	66.58470	-1392.46436	
107	1.060																												-631.34204	1173.65027	-1354.34863				-557.14606	1067.47327	-1151.42456	-185.17255	915.59412	-1309.00269	-460.61078	933.83252	-1271.45264				-158.88095	473.18106	-1369.33252	-524.93506	468.58908	-1316.60657				-505.83075	66.53848	-1392.64795	
108	1.070																												-631.37897	1173.84351	-1353.70740				-557.46130	1067.32666	-1150.98303	-185.17819	915.58978	-1309.00696	-460.50610	933.95441	-1270.98669				-158.38969	473.17563	-1370.73865	-523.84790	468.03119	-1316.52454				-505.85385	66.47165	-1392.73816	
109	1.080																												-631.58264	1173.61755	-1351.74487				-557.81860	1067.40540	-1149.77429	-185.24010	915.58026	-1309.05334	-460.35889	934.14728	-1270.70361				-157.83850	473.19305	-1372.26379	-523.39569	468.25266	-1315.76331				-505.89969	66.38577	-1392.92896	
110	1.090																												-631.79730	1173.45056	-1349.88940				-557.98431	1067.58606	-1148.67029	-185.26727	915.58142	-1309.07361	-460.35889	934.14728	-1270.70361				-157.72127	473.40762	-1371.62854	-523.33716	468.21048	-1315.03918				-505.94006	66.29632	-1393.09351	
111	1.100																												-631.98639	1174.03955	-1349.61865				-558.28522	1068.07898	-1147.45093	-185.28258	915.58051	-1309.08508	-460.22742	934.32330	-1270.51465				-157.56161	473.83420	-1370.78308	-522.79388	467.98062	-1315.12439				-505.95132	66.28298	-1393.14246	
112	1.110																												-631.98181	1174.26343	-1348.78809				-558.75049	1068.26147	-1145.74292	-185.38467	915.56061	-1309.16150	-459.99255	934.60498	-1269.61121				-157.45303	474.05771	-1370.19836	-522.19971	468.02109	-1314.16150				-506.04593	66.13230	-1393.54297	
113	1.120																												-631.92413	1174.51758	-1347.70044				-558.58710	1068.63342	-1145.17664	-185.39256	915.58636	-1309.16711	-460.01932	934.55151	-1269.34387				-157.18617	474.57770	-1368.75696	-521.45184	468.13882	-1313.67090				-506.10574	66.02528	-1393.79346	
114	1.130																												-631.84564	1174.79736	-1346.57825				-559.02478	1068.80579	-1143.22693	-185.35538	915.59143	-1309.13928	-458.95050	934.00793	-1268.94727				-156.93076	475.00183	-1367.36682	-521.34521	468.12555	-1313.62708				-506.11957	65.98349	-1393.84705	
115	1.140																												-631.71179	1175.03418	-1345.36511				-559.07684	1069.24341	-1141.80176	-185.32022	915.61176	-1309.11279	-458.29010	934.05939	-1268.73169				-156.20215	474.58411	-1367.80798	-521.52338	467.86859	-1313.64954				-506.16501	65.89594	-1394.03552	
116	1.150																												-631.95660	1175.24084	-1343.69678				-559.29022	1069.31567	-1140.89868	-185.19734	915.47211	-1307.00879	-458.23016	934.12567	-1268.40088				-155.31822	474.38315	-1368.56580	-521.37366	467.97864	-1313.39917				-506.23227	65.81964	-1394.32813	
117	1.160																												-631.78461	1175.51746	-1342.38928				-559.82166	1069.42639	-1138.74060	-185.01486	915.68292	-1308.88403	-457.85364	934.60229	-1267.37842				-153.91597	473.47260	-1370.92297	-521.17694	468.17233	-1313.23157				-506.27057	65.75570	-1394.48962	
118	1.170																												-631.59412	1175.82544	-1341.15857				-559.83539	1069.97339	-1137.23621	-184.83339	915.55823	-1306.73645	-456.78052	934.34320	-1267.19788				-153.55417	474.14792	-1368.95825	-520.95532	467.76678	-1312.97510				-506.56793	67.05450	-1393.81238	
119	1.180																												-631.54352	1175.60803	-1338.97522				-560.12231	1069.99023	-1135.62683	-184.66725	915.59961	-1306.61206	-456.74536	934.37469	-1266.87451				-153.18915	474.83554	-1366.97693	-520.72345	467.63266	-1312.19397				-506.55698	67.08380	-1393.76892	
120	1.190	-453.41110	1583.48547	-1242.52991																									-631.30585	1175.92871	-1337.72485				-560.10229	1070.30115	-1134.37231	-184.27905	916.52832	-1314.46179	-455.90042	934.41516	-1266.50818				-152.58078	474.43729	-1366.53113	-519.84094	467.29053	-1312.29370				-506.69507	66.88470	-1394.35889	
121	1.200	-452.79764	1583.45227	-1242.02136																									-631.04651	1176.23596	-1336.53271				-560.64960	1070.42151	-1131.87524	-184.07776	916.78540	-1313.40100	-455.23358	934.21356	-1265.21069				-151.89729	474.56204	-1367.43335	-519.64642	467.23532	-1311.34985				-506.62485	67.06025	-1394.07788	
122	1.210	-452.08670	1583.54199	-1241.61169																									-631.91986	1174.05493	-1343.83362				-560.75507	1070.90527	-1130.11072	-183.16037	916.18463	-1315.15137	-455.10242	934.39813	-1265.17224				-151.27332	474.61136	-1368.66492	-519.49042	467.36456	-1311.10205				-506.61414	67.15094	-1394.05127	
123	1.220	-451.36276	1583.50024	-1241.53174																									-630.41724	1176.81360	-1334.08508				-561.01917	1070.82568	-1128.20862	-182.88750	916.54419	-1313.71313	-454.06793	933.99597	-1264.86938				-151.17169	474.80908	-1368.11316	-519.30664	467.00208	-1310.91150				-506.54578	67.27830	-1393.76660	
124	1.230	-450.56302	1583.44580	-1240.58179																									-630.05603	1177.14966	-1332.82068				-561.47577	1070.64893	-1126.21704	-182.16171	916.55157	-1314.81946	-453.69150	934.47369	-1263.84570				-150.70416	474.12347	-1368.43042	-519.18475	467.27338	-1310.89502				-506.44965	67.46432	-1393.36792	
125	1.240	-449.71829	1583.75598	-1239.93298																									-629.63593	1177.45068	-1331.53113				-561.54565	1071.10754	-1124.47766	-180.72955	915.41602	-1318.25720	-452.51974	934.45929	-1263.74963				-150.57246	474.31879	-1367.70642	-518.46729	466.63254	-1310.43518				-506.45636	67.46992	-1393.40051	
126	1.250	-448.86017	1583.81738	-1239.18323																									-629.14435	1177.73889	-1330.14148				-562.13202	1071.02466	-1122.48523	-180.47871	915.77417	-1316.93481	-451.35468	934.22101	-1262.20056				-150.45636	474.52100	-1367.07227	-518.41748	466.96088	-1310.35522				-506.37515	67.62900	-1393.06421	
127	1.260	-447.94641	1584.03369	-1238.64624																									-628.29285	1177.70630	-1328.11328				-559.62958	1068.72559	-1121.00488	-179.77888	915.19641	-1317.09363	-451.02960	934.65765	-1261.72925				-148.11897	471.79892	-1374.35132	-517.24609	466.78848	-1310.38489				-505.93149	68.18546	-1395.37317	
128	1.270	-447.11304	1584.11279	-1238.43176																									-627.55225	1177.83716	-1326.30310				-559.65051	1068.81689	-1118.96228	-178.70178	914.83307	-1318.01184	-449.22574	933.97253	-1261.47034				-147.86636	472.22894	-1372.96594	-517.32745	467.09189	-1309.81335				-505.84567	68.36420	-1395.02051	
129	1.280	-446.09119	1584.15796	-1237.51465																									-626.81714	1177.90869	-1324.54272				-559.45276	1069.20532	-1117.26501	-178.33281	915.35120	-1316.06238	-448.60574	934.79059	-1260.29602				-147.19286	471.88882	-1372.15503	-516.40674	466.57074	-1310.30835				-505.85815	68.36656	-1395.07898	
130	1.290	-445.07950	1584.52002	-1236.91614																									-625.81213	1178.11084	-1323.47461				-559.51434	1069.19702	-1115.40649	-177.88631	915.99066	-1313.70483	-447.89993	934.66498	-1260.37610				-146.63184	472.79062	-1369.06958	-515.34436	466.55136	-1309.96045				-505.83154	68.44473	-1394.97546	
131	1.300	-443.98395	1584.77454	-1235.92627																									-625.17822	1178.37085	-1322.03015				-560.39075	1069.52698	-1114.16040	-176.57213	916.00842	-1313.37109	-446.57352	934.64081	-1259.34814				-145.17981	473.12555	-1370.40784	-514.11322	466.49292	-1309.44397				-505.77405	68.59724	-1394.74768	
132	1.310	-442.85794	1584.74573	-1235.23352																									-624.56091	1178.63538	-1320.83862				-560.25513	1069.47437	-1111.81604	-175.51736	916.57617	-1312.75183	-445.92789	934.99945	-1258.57568				-144.29402	473.25827	-1368.44458	-513.90546	466.93134	-1309.18933				-505.80984	68.60712	-1394.91638	
